<?xml version="1.0" encoding="UTF-8"?>
<svg id="Layer_1" data-name="Layer 1" xmlns="http://www.w3.org/2000/svg" viewBox="0 0 1504 1504">
  <defs>
    <style>
      .cls-1 {
        fill: #fff;
      }
    </style>
  </defs>
  <path class="cls-1" d="m838.44,806.09c-37.16,0-74.36,1.09-111.47-.28-46.2-1.69-86.93-19.02-121.29-49.84-49.66-44.54-72.45-100.72-67.9-167.22,3.18-46.44,21.46-86.89,53.15-121.05,31.79-34.27,70.88-55.32,117.04-62.4,50.02-7.67,96.73,2.05,139.49,29.33,40.69,25.95,69.42,61.89,83.45,107.94,22.06,72.38,8.32,138.21-41.27,195.78-8.52,9.89-18.9,18.22-28.77,26.88-6.16,5.4-12.2,5.03-16.15-.02-3.88-4.97-2.57-10.84,3.98-15.8,18.27-13.85,33.35-30.56,45.18-50.17,23.29-38.6,31.55-80.22,24.11-124.7-7.44-44.5-28.85-81.33-63.52-109.94-37-30.53-79.86-44.33-127.88-41.17-45.4,3-84.42,20.82-116.37,52.92-32.6,32.76-50.5,72.58-52.78,119.06-2.29,46.61,11.38,88.2,40.85,124.11,29.2,35.58,66.91,57.37,112.62,64.32,11.31,1.72,22.87,2.39,34.32,2.43,68.5.22,137,.1,205.5.13,2.66,0,5.35.09,7.96.51,4.73.77,7.98,4.59,8.23,9.28.22,4.22-2.75,8.56-7.11,9.69-2.54.66-5.26.81-7.9.82-37.83.05-75.67.03-113.5.03,0-.21,0-.42,0-.63Z"/>
  <path class="cls-1" d="m737.64,1002.55c9.83-29.97,19.24-58.54,28.53-87.15.95-2.93,2.22-4.35,5.58-4.25,8.16.24,16.33.21,24.49.02,3.74-.08,4.94,1.4,4.93,5.02-.07,45.83-.07,91.65,0,137.48,0,3.78-1.16,5.48-5.19,5.31-5.99-.25-12-.27-17.99,0-4.3.2-5.41-1.64-5.39-5.62.12-24,.06-47.99.06-71.99,0-.99,0-1.98,0-2.96-.28-.07-.57-.13-.85-.2-1.15,3.69-2.34,7.37-3.43,11.08-6.32,21.53-12.67,43.05-18.88,64.62-1.01,3.52-2.59,5.65-6.57,5.03-.81-.13-1.66-.02-2.5-.02-13.35,0-13.23-.03-16.72-13.12-5.99-22.48-12.14-44.92-18.24-67.37-.16-.6-.42-1.17-1.37-1.76-.07,1.36-.2,2.72-.2,4.09-.01,24-.12,47.99.08,71.99.04,4.75-1.26,6.59-6.19,6.27-5.97-.39-11.99-.19-17.99-.06-3.23.07-4.36-1.23-4.36-4.46.07-46.33.07-92.65,0-138.98,0-3.37,1.48-4.34,4.54-4.31,8.83.08,17.66.1,26.49-.01,2.87-.04,4.07,1.27,4.84,3.88,8.01,27.09,16.1,54.14,24.19,81.21.5,1.69,1.14,3.34,2.14,6.27Zm-1.11,38.09c.44.08.88.15,1.32.23.79-1.73,1.73-3.41,2.33-5.2,11.59-34.45,23.13-68.92,34.69-103.38,2.22-6.63,2.96-7.01,10.89-4.79v118.43c.48.04.96.09,1.44.13.25-1.16.72-2.31.72-3.47.04-38.33.04-76.65-.01-114.98,0-1.19-.63-3.37-1.13-3.42-3.46-.34-7.06-.72-10.4-.02-1.37.29-2.55,3.1-3.18,4.97-11.23,33.27-22.36,66.58-33.52,99.87-.55,1.64-1.19,3.25-2.18,5.93-.98-2.6-1.58-4.07-2.08-5.57-10.93-32.75-21.84-65.5-32.76-98.25-2.48-7.43-2.49-7.2-10.11-7.45-4.16-.14-5.35,1.18-5.33,5.33.15,37.33.08,74.65.11,111.98,0,1.68.29,3.35.46,5.18,1.02-.32,1.58-.42,1.58-.51.04-39.55.04-79.09.04-118.38q8.79-1.67,11,4.95c6.83,20.53,13.64,41.07,20.48,61.6,5.2,15.61,10.44,31.21,15.67,46.82Z"/>
  <path class="cls-1" d="m1067.82,978.46c-7.17,24.38-14.49,48.72-21.41,73.17-1.56,5.51-3.82,7.73-9.92,7.46-13-.57-12.9-.21-16.32-12.97-6.16-22.92-12.48-45.8-19.84-68.65,0,1.61,0,3.22,0,4.83,0,23.5-.11,47,.09,70.5.04,4.85-1.5,6.52-6.32,6.19-5.47-.37-11.01-.34-16.49,0-4.62.28-6.05-1.35-6.02-5.98.17-30.66.09-61.33.09-92,0-14.5.15-29-.09-43.5-.08-4.65,1.1-6.63,6.13-6.39,7.98.38,16,.25,23.99.03,3.46-.1,4.98,1.18,5.95,4.46,8.04,27.25,16.24,54.46,24.4,81.67.37,1.25.82,2.47,1.6,4.78.9-2.26,1.52-3.61,1.99-5.02,8.92-27,17.89-53.98,26.63-81.04,1.2-3.71,2.98-4.97,6.74-4.85,7.66.24,15.33.21,22.99.01,3.78-.1,5.4,1.06,5.39,5.09-.09,45.83-.09,91.66,0,137.49,0,3.87-1.27,5.39-5.23,5.22-5.82-.25-11.67-.3-17.49.01-4.43.24-5.78-1.42-5.75-5.74.15-23.16.07-46.33.07-69.5v-5.38c-.39.03-.78.06-1.18.09Zm-33.5,55.06c-.39-.04-.79-.08-1.18-.11-1.53-4.52-3.09-9.04-4.6-13.58-10.14-30.45-20.26-60.92-30.47-91.34-.57-1.7-1.81-4.24-3.05-4.45-3.63-.6-7.43-.21-10.8-.21v122.15c.58,0,1.16.01,1.74.02v-118.89q8.44-1.32,10.61,5.24c11.39,34.29,22.79,68.59,34.22,102.87.64,1.93,1.62,3.76,2.98,6.88,1.29-3.05,2.15-4.77,2.76-6.57,11.58-34.36,23.12-68.74,34.68-103.11,2.29-6.82,2.69-7.02,10.65-5.04v118.59c1.53-.37,2.25-.9,2.36-1.53.23-1.3.16-2.65.16-3.98,0-36.99.02-73.99-.03-110.98,0-1.75.08-4.11-.94-5.13-2.81-2.83-12.41.09-13.68,3.89-5.06,15.14-10.07,30.31-15.16,45.44-6.71,19.96-13.48,39.9-20.23,59.85Z"/>
  <path class="cls-1" d="m454.54,986.74c0,11.93,0,23.87,0,35.8,0,10.34-.17,20.68.08,31.01.1,4.27-1.54,5.57-5.57,5.43-6.16-.22-12.34-.29-18.5.02-4.2.21-5.51-1.31-5.48-5.41.14-20.17.06-40.34.06-60.52,0-25.01,0-50.01,0-75.02q0-6.8,7.01-6.81c5.5,0,11.02.3,16.49-.1,4.35-.31,6.48,1.26,8.17,5.27,8.67,20.52,17.64,40.92,26.51,61.36.62,1.42,1.32,2.79,2.97,3.94,0-7.09,0-14.17,0-21.26,0-14.67.11-29.34-.07-44.01-.05-3.93,1.26-5.36,5.16-5.24,6.49.2,13,.19,19.5,0,3.56-.1,5.06.98,5.05,4.81-.1,46.01-.09,92.03,0,138.04,0,3.67-1.22,5.07-4.94,4.94-6.33-.22-12.67-.25-19,.02-3.44.14-5.02-1.31-6.33-4.28-9.63-21.92-19.41-43.78-29.14-65.66-.38-.84-.83-1.65-1.26-2.48-.24.06-.48.11-.72.17Zm-13.81-53.58c.57-.13,1.15-.27,1.72-.4,6.39,12.71,12.75,25.44,19.18,38.14,6.46,12.76,12.97,25.49,19.48,38.22,6.37,12.47,12.29,25.2,19.98,37.13,1.03-2.26,1.19-4.18,1.19-6.11.02-29.17.01-58.35.01-87.52,0-8.17.05-16.34-.05-24.51-.02-1.45-.66-2.89-1.02-4.33l-1.61.31v113.46c-20.57-37.74-39.52-76.02-59.11-113.95-.41.23-.83.47-1.24.7v121.71c.49,0,.98,0,1.47.01v-112.87Z"/>
  <path class="cls-1" d="m244.63,984.37c0,8.17-.31,16.35.06,24.5.77,16.78,9.79,24.02,26.32,21.57,8.27-1.23,13.7-6.47,15.38-15.46.76-4.06.97-8.28.97-12.42,0-3.29,1.31-4.48,4.44-4.44,7,.08,14.01-.15,20.99.16,1.44.06,4.05,1.95,4.01,2.91-.4,10.11-.22,20.41-2.17,30.27-2.93,14.8-13.22,23.5-27.62,27.08-14.99,3.73-30.12,3.72-44.92-.78-17.16-5.21-27.04-19.21-27.43-39.23-.42-22.16-.4-44.34-.03-66.51.22-13.05,3.54-25.39,15.06-33.25,4.96-3.38,10.87-5.96,16.72-7.32,13.94-3.24,28.12-3.26,41.99.67,16.65,4.72,26.17,16.44,27.95,33.79.42,4.14.47,8.31.66,12.47.13,2.68-1.06,3.89-3.86,3.85-7.33-.1-14.67-.08-22,0-2.68.03-3.73-.93-3.97-3.75-1.48-17.15-21.02-26-35.12-15.88-5.98,4.29-7.2,10.99-7.42,17.76-.26,7.99-.06,16-.06,24,.01,0,.02,0,.04,0Zm55.19-35.21l1.25-.15c0-1.96.34-3.98-.06-5.85-1.72-8.01-7.04-13.05-14.34-16.06-10.12-4.18-20.68-4.49-31.43-3.16-16.57,2.04-26.05,11.46-26.84,28.11-.71,14.96-.63,29.96-.67,44.95-.02,7.65.15,15.32.73,22.95,1.03,13.51,9.04,23.11,22.37,24.95,9.26,1.28,18.95,1.39,28.22.24,14.21-1.77,22.57-11.92,23.45-26.19.15-2.39.02-4.8.02-7.19-.6,0-1.2-.01-1.81-.02-.17,1.87-.33,3.74-.5,5.61-1.28,13.47-7.68,22.44-19.89,24.94-8,1.64-16.63,2.18-24.7,1.1-17.3-2.32-24.85-11.11-25.17-28.46-.38-20.32-.26-40.65.11-60.97.25-13.9,7.4-23.97,19.96-26.38,8.64-1.65,17.91-1.7,26.67-.61,11.51,1.43,19.48,8.08,21.37,20.38.1.65.83,1.21,1.27,1.81Z"/>
  <path class="cls-1" d="m1239.65,998.05v32.86c2.08,0,3.86,0,5.65,0,13.16,0,26.32.07,39.48-.05,3.29-.03,4.94.83,4.83,4.48-.19,6.33-.15,12.66-.01,18.99.07,3.13-1.02,4.61-4.29,4.6-23.82-.05-47.65-.05-71.47,0-3.25,0-4.28-1.36-4.28-4.54.07-46.16.07-92.31,0-138.47,0-3.42,1.11-4.75,4.6-4.74,23.66.09,47.31.09,70.97,0,3.59-.01,4.58,1.55,4.49,4.87-.18,5.99-.21,12,0,17.99.14,3.89-1.3,5.28-5.23,5.23-12.99-.18-25.99-.07-38.98-.07-1.8,0-3.59,0-5.72,0v30.44h27.43q11.5,0,11.5,11.65c0,4-.15,8.01.04,11.99.18,3.74-1.38,4.89-5.03,4.83-11.14-.18-22.29-.07-33.99-.07Zm36.89-71.91l.1-1.59c-.54-.24-1.07-.68-1.61-.68-16.33-.06-32.66-.04-48.99-.11-3.1-.01-3.37,1.79-3.37,4.24.04,37.83.06,75.67-.03,113.5,0,3.47,1.1,4.6,4.61,4.56,15.16-.17,30.33-.06,45.49-.09,1.31,0,2.62-.31,3.93-.48-.02-.61-.04-1.22-.06-1.83h-50.78v-59.08h41.62c.01-.57.03-1.15.04-1.72-6.65-1.95-13.6-.58-20.38-.82-7.09-.26-14.19-.06-21.31-.06v-55.84h50.73Z"/>
  <path class="cls-1" d="m587.71,939.21v30.44c3.03,0,5.95,0,8.88,0,8.5,0,17,.11,25.49-.05,3.32-.06,4.86.81,4.73,4.47-.24,6.49-.22,13,0,19.49.11,3.56-1.28,4.6-4.69,4.55-11.3-.15-22.6-.06-34.22-.06v32.86h5.19c12.99,0,25.99.14,38.98-.08,4.23-.07,6.07.97,5.78,5.56-.37,5.98-.2,11.99-.05,17.99.08,3.14-.98,4.57-4.27,4.56-23.82-.06-47.65-.07-71.47.01-3.09.01-4.22-1.31-4.1-4.18.04-.83,0-1.67,0-2.5,0-44.99.07-89.98-.1-134.97-.02-4.8,1.33-6.23,6.17-6.18,22.65.24,45.31.24,67.97,0,4.78-.05,6.09,1.56,5.84,6.04-.32,5.65-.29,11.34,0,16.99.2,3.99-1.27,5.19-5.17,5.14-12.99-.19-25.99-.07-38.98-.07-1.81,0-3.61,0-5.94,0Zm37.42-13.15c0-.52.01-1.04.02-1.55-.43-.2-.87-.58-1.3-.58-16.65-.07-33.3-.18-49.95.03-1.02.01-2.89,2.55-2.89,3.92-.16,37.81-.11,75.62-.16,113.43,0,3.24.92,4.79,4.57,4.75,15.49-.17,30.97-.06,46.46-.1,1.12,0,2.23-.4,3.35-.62-.04-.56-.07-1.13-.11-1.69h-51.07v-58.44c13.98-.81,27.79.47,41.47-.69,0-.78-.02-1.55-.03-2.33h-41.43v-56.13h51.07Z"/>
  <path class="cls-1" d="m925.76,1059.16c-4.45-.26-10.08,1.02-13.03-1.22-2.91-2.21-3.21-7.96-4.5-12.2-1.59-5.24-3.18-10.49-4.47-15.81-.65-2.66-1.61-3.93-4.62-3.86-8.49.2-16.99.14-25.48.03-2.57-.04-3.77.66-4.43,3.37-1.99,8.24-4.59,16.33-6.5,24.58-.89,3.86-2.63,5.12-6.48,4.95-6.32-.29-12.66-.2-18.98-.04-3.99.1-5.49-1.18-4.37-5.33,9.63-35.45,19.17-70.92,28.74-106.39,2.86-10.59,5.84-21.15,8.49-31.79.8-3.2,2.21-4.36,5.46-4.27,6.99.19,13.99.21,20.98,0,3.56-.11,5.2.92,6.19,4.65,9.06,34.21,18.37,68.35,27.6,102.51,3.16,11.71,6.16,23.46,9.5,35.12,1.18,4.12.03,5.63-4.08,5.5-3.33-.1-6.66-.02-9.99-.02,0,.08,0,.17-.01.25Zm-77.08-13.7c.58.17,1.16.34,1.75.52.67-1.77,1.46-3.51,2-5.32,2.5-8.44,5-16.89,7.34-25.38.72-2.63,1.89-3.72,4.8-3.69,14.49.16,28.98.13,43.47.02,2.82-.02,4.02.92,4.81,3.7,2.65,9.26,5.64,18.42,8.55,27.6.33,1.04.98,1.98,1.48,2.97.4-.16.8-.31,1.2-.47-.39-1.72-.69-3.47-1.2-5.15-11.27-37.55-22.55-75.1-33.94-112.62-.46-1.53-2.02-2.73-3.06-4.09-1.06,1.31-2.65,2.47-3.09,3.97-10.64,36.19-21.17,72.41-31.7,108.63-.9,3.08-1.61,6.21-2.41,9.32Z"/>
  <path class="cls-1" d="m737.86,455.3c27.67-.77,50.71,21.59,51.22,49.7.49,26.94-21.62,49.97-48.72,50.75-27.52.8-50.95-21.28-51.76-48.76-.82-27.85,21.16-50.92,49.25-51.7Zm31.06,50.29c.03-16.54-13.68-30.33-30.09-30.26-16.49.07-30.31,13.96-30.15,30.3.17,16.46,14.14,30.27,30.42,30.09,16.28-.19,29.79-13.83,29.82-30.13Z"/>
  <path class="cls-1" d="m629.3,691.01c-1.57-25.27,16.94-49.05,43.43-52.11,30.99-3.57,55.17,19.34,56.62,47.12,1.47,27.95-19.49,51.32-48.4,52.71-27.06,1.3-51.16-20.22-51.66-47.73Zm50.39-32.31c-16.71-.12-30.57,13.37-30.53,29.71.04,16.84,13.3,30.36,29.86,30.47,16.53.11,30.43-13.62,30.38-30.03-.04-16.41-13.47-30.04-29.71-30.16Z"/>
  <path class="cls-1" d="m834.79,525.66c27.9-.27,50.48,21.76,50.72,49.48.24,27.65-21.83,50.09-49.82,50.63-27.29.53-50.6-22.57-50.71-50.26-.11-27.48,21.98-49.59,49.81-49.86Zm-29.66,49.7c.23,17.17,13.62,30.49,30.49,30.32,16.13-.16,29.81-14.07,29.71-30.21-.1-16.63-14.19-30.36-30.87-30.07-16.04.28-29.54,14.06-29.33,29.95Z"/>
  <path class="cls-1" d="m799.51,638.74c28.42,1.06,50.06,23.83,49.02,51.58-1.05,28.1-24.2,49.7-52.07,48.59-28.1-1.12-49.1-24.4-47.96-53.17,1.04-26.4,24.48-47.99,51.01-47Zm-31.07,49.62c-.21,16.77,12.94,30.25,29.72,30.47,16.58.22,30.2-13.18,30.37-29.87.17-16.63-13.03-29.88-30.05-30.16-16.35-.28-29.83,12.99-30.04,29.57Z"/>
  <path class="cls-1" d="m592.48,575.01c.25-27.11,22.49-49.26,48.56-49.65,28.89-.44,51.3,23,51.54,49.33.26,28.58-22.28,50.81-50.44,50.89-27.66.08-49.92-22.87-49.66-50.57Zm20.01.46c.05,17.15,13.43,30.4,30.52,30.19,15.99-.19,29.49-13.85,29.48-29.83-.01-16.83-13.53-30.55-29.89-30.35-17.1.21-30.15,13.2-30.11,29.99Z"/>
  <path class="cls-1" d="m354.61,985.01c0-22.51.11-45.01-.09-67.52-.04-4.69,1.17-6.69,6.16-6.36,5.81.38,11.68.35,17.49,0,4.65-.28,6.01,1.4,5.99,5.99-.16,32.34-.09,64.68-.09,97.02,0,13-.17,26.01.09,39.01.09,4.71-1.57,6.11-6.11,5.83-5.81-.35-11.68-.33-17.49,0-4.59.26-6.09-1.31-6.05-5.97.2-22.67.09-45.34.09-68.02Zm15.39-60.74c-2.78,7.19-2.03,119.13,0,121.89v-121.89Z"/>
  <path class="cls-1" d="m1168.62,985.52c0,22.5-.12,44.99.1,67.49.04,4.67-1.48,6.23-6.04,5.98-5.65-.3-11.35-.4-16.98.02-5.03.38-6.66-1.28-6.57-6.38.28-16.83.1-33.66.1-50.49,0-28.16.12-56.32-.11-84.49-.04-5.06,1.43-6.88,6.5-6.52,5.3.38,10.66.08,15.99.09q7,0,7.02,6.8c0,22.5,0,44.99,0,67.49Zm-14.15-61.2c-.37,0-.74,0-1.11,0v121.4c.37,0,.74,0,1.11,0v-121.4Z"/>
  <path class="cls-1" d="m738.99,623.89c-9.49.07-17.27-7.61-17.29-17.05-.02-9.48,7.68-17.11,17.24-17.06,9.42.05,16.8,7.36,16.93,16.75.13,9.6-7.35,17.29-16.87,17.36Z"/>
  <path class="cls-1" d="m618.3,868.32c-4.35,6.2-8.11,12.97-13.34,18.3-1.98,2.01-7.36.73-11.19.74-.21,0-.74-2.03-.57-3.02.84-4.9,1.77-9.79,2.87-14.64.26-1.14,1.26-2.99,1.97-3.02,6.51-.23,13.02-.14,19.54-.14.24.59.48,1.19.72,1.78Zm-12.3,4.06c-.77-.23-1.54-.47-2.31-.7-1.11,3.34-2.21,6.68-3.32,10.02.71.24,1.42.48,2.14.72,1.16-3.35,2.33-6.69,3.49-10.04Z"/>
  <path d="m736.53,1040.64c-5.22-15.61-10.46-31.21-15.67-46.82-6.84-20.53-13.65-41.07-20.48-61.6q-2.2-6.62-11-4.95c0,39.28,0,78.83-.04,118.38,0,.09-.56.19-1.58.51-.17-1.83-.46-3.51-.46-5.18-.03-37.33.04-74.65-.11-111.98-.02-4.15,1.17-5.47,5.33-5.33,7.62.25,7.64.02,10.11,7.45,10.92,32.75,21.83,65.5,32.76,98.25.5,1.5,1.11,2.97,2.08,5.57.99-2.68,1.63-4.29,2.18-5.93,11.16-33.3,22.29-66.6,33.52-99.87.63-1.88,1.82-4.69,3.18-4.97,3.33-.7,6.94-.31,10.4.02.5.05,1.13,2.23,1.13,3.42.06,38.33.05,76.65.01,114.98,0,1.16-.47,2.31-.72,3.47-.48-.04-.96-.09-1.44-.13v-118.43c-7.93-2.22-8.67-1.84-10.89,4.79-11.55,34.46-23.1,68.93-34.69,103.38-.6,1.79-1.55,3.47-2.33,5.2-.44-.08-.88-.15-1.32-.23Z"/>
  <path d="m1034.31,1033.51c6.75-19.95,13.52-39.89,20.23-59.85,5.09-15.13,10.1-30.3,15.16-45.44,1.27-3.79,10.87-6.72,13.68-3.89,1.02,1.02.94,3.38.94,5.13.05,36.99.04,73.99.03,110.98,0,1.33.07,2.69-.16,3.98-.11.63-.83,1.16-2.36,1.53v-118.59c-7.96-1.99-8.36-1.78-10.65,5.04-11.56,34.37-23.1,68.74-34.68,103.11-.61,1.8-1.47,3.52-2.76,6.57-1.36-3.12-2.34-4.95-2.98-6.88-11.43-34.28-22.82-68.57-34.22-102.87q-2.18-6.56-10.61-5.24v118.89c-.58,0-1.16-.01-1.74-.02v-122.15c3.37,0,7.17-.39,10.8.21,1.25.21,2.48,2.75,3.05,4.45,10.22,30.43,20.33,60.89,30.47,91.34,1.51,4.53,3.07,9.05,4.6,13.58.39.04.79.08,1.18.11Z"/>
  <path d="m440.73,933.16v112.87c-.49,0-.98,0-1.47-.01v-121.71c.41-.23.83-.47,1.24-.7,19.59,37.93,38.53,76.21,59.11,113.95v-113.46l1.61-.31c.36,1.44,1,2.88,1.02,4.33.1,8.17.05,16.34.05,24.51,0,29.17,0,58.35-.01,87.52,0,1.93-.16,3.85-1.19,6.11-7.69-11.93-13.6-24.65-19.98-37.13-6.51-12.73-13.02-25.47-19.48-38.22-6.43-12.7-12.79-25.42-19.18-38.14-.57.13-1.15.27-1.72.4Z"/>
  <path d="m299.82,949.16c-.44-.6-1.17-1.16-1.27-1.81-1.89-12.3-9.86-18.96-21.37-20.38-8.76-1.09-18.03-1.04-26.67.61-12.56,2.41-19.71,12.48-19.96,26.38-.37,20.32-.48,40.65-.11,60.97.32,17.35,7.87,26.14,25.17,28.46,8.07,1.08,16.7.54,24.7-1.1,12.21-2.5,18.61-11.47,19.89-24.94.18-1.87.34-3.74.5-5.61.6,0,1.2.01,1.81.02,0,2.4.13,4.8-.02,7.19-.88,14.27-9.24,24.43-23.45,26.19-9.27,1.15-18.96,1.05-28.22-.24-13.32-1.85-21.34-11.45-22.37-24.95-.58-7.62-.75-15.3-.73-22.95.05-14.99-.03-29.99.67-44.95.79-16.65,10.27-26.07,26.84-28.11,10.74-1.32,21.3-1.02,31.43,3.16,7.29,3.01,12.61,8.05,14.34,16.06.4,1.87.06,3.9.06,5.85l-1.25.15Z"/>
  <path d="m1276.54,926.14h-50.73v55.84c7.12,0,14.22-.2,21.31.06,6.78.25,13.74-1.12,20.38.82-.01.57-.03,1.15-.04,1.72h-41.62v59.08h50.78c.02.61.04,1.22.06,1.83-1.31.17-2.62.48-3.93.48-15.16.03-30.33-.07-45.49.09-3.51.04-4.62-1.09-4.61-4.56.09-37.83.07-75.67.03-113.5,0-2.45.26-4.25,3.37-4.24,16.33.07,32.66.05,48.99.11.54,0,1.08.45,1.61.68l-.1,1.59Z"/>
  <path d="m625.13,926.06h-51.07v56.13h41.43c0,.78.02,1.55.03,2.33-13.68,1.16-27.49-.12-41.47.69v58.44h51.07c.04.56.07,1.13.11,1.69-1.12.22-2.23.61-3.35.62-15.49.04-30.98-.07-46.46.1-3.65.04-4.57-1.51-4.57-4.75.04-37.81,0-75.62.16-113.43,0-1.37,1.87-3.91,2.89-3.92,16.65-.21,33.3-.1,49.95-.03.44,0,.87.38,1.3.58,0,.52-.01,1.04-.02,1.55Z"/>
  <path d="m848.68,1045.46c.8-3.11,1.52-6.24,2.41-9.32,10.52-36.22,21.05-72.44,31.7-108.63.44-1.5,2.03-2.65,3.09-3.97,1.05,1.35,2.6,2.55,3.06,4.09,11.39,37.52,22.66,75.07,33.94,112.62.51,1.69.8,3.43,1.2,5.15-.4.16-.8.31-1.2.47-.5-.99-1.15-1.93-1.48-2.97-2.91-9.18-5.9-18.34-8.55-27.6-.79-2.77-1.99-3.72-4.81-3.7-14.49.11-28.98.14-43.47-.02-2.91-.03-4.08,1.06-4.8,3.69-2.34,8.49-4.84,16.93-7.34,25.38-.54,1.81-1.33,3.55-2,5.32-.58-.17-1.16-.34-1.75-.52Zm37.28-119.11c-8.37,28.23-16.32,55.04-24.39,82.27h49.22c-8.21-27.21-16.3-54.01-24.82-82.27Z"/>
  <path d="m768.92,505.59c-.03,16.29-13.54,29.94-29.82,30.13-16.28.19-30.26-13.63-30.42-30.09-.17-16.33,13.66-30.23,30.15-30.3,16.41-.07,30.12,13.72,30.09,30.26Z"/>
  <path d="m679.69,658.7c16.24.12,29.67,13.75,29.71,30.16.04,16.4-13.85,30.14-30.38,30.03-16.56-.11-29.82-13.63-29.86-30.47-.04-16.34,13.82-29.84,30.53-29.71Z"/>
  <path d="m805.13,575.36c-.21-15.89,13.28-29.68,29.33-29.95,16.68-.29,30.77,13.43,30.87,30.07.1,16.14-13.58,30.05-29.71,30.21-16.86.17-30.26-13.15-30.49-30.32Z"/>
  <path d="m768.44,688.37c.21-16.58,13.68-29.85,30.04-29.57,17.03.29,30.22,13.54,30.05,30.16-.17,16.69-13.79,30.09-30.37,29.87-16.78-.22-29.94-13.7-29.72-30.47Z"/>
  <path d="m612.49,575.48c-.04-16.79,13-29.78,30.11-29.99,16.36-.2,29.88,13.53,29.89,30.35.01,15.97-13.49,29.63-29.48,29.83-17.08.2-30.47-13.04-30.52-30.19Z"/>
  <path d="m370,924.27v121.89c-2.03-2.76-2.78-114.7,0-121.89Z"/>
  <path d="m1154.47,924.31v121.4c-.37,0-.74,0-1.11,0v-121.4c.37,0,.74,0,1.11,0Z"/>
  <path d="m605.99,872.38c-1.16,3.35-2.33,6.69-3.49,10.04-.71-.24-1.42-.48-2.14-.72,1.11-3.34,2.21-6.68,3.32-10.02.77.23,1.54.47,2.31.7Z"/>
  <path class="cls-1" d="m885.96,926.35c8.53,28.25,16.61,55.05,24.82,82.27h-49.22c8.07-27.23,16.02-54.04,24.39-82.27Zm.69,40.22c-.31.04-.62.08-.93.11-2.74,10.35-5.49,20.7-8.3,31.34h18.22c-3.09-10.82-6.04-21.14-8.99-31.45Z"/>
</svg>